# xmcd
#
# Track frame offsets:
#	150
#	17503
#	34253
#	45781
#	56356
#	73756
#	88276
#	103126
#	119401
#	135879
#	147892
#	160842
#	170782
#	186880
#	198383
#
# Disc length: 2800 seconds
#
# Revision: 2
# Processed by: cddbd v1.5.2PL0 Copyright (c) Steve Scherf et al.
# Submitted via: EZCDAudioConverter 7.1.8.1
#
DISCID=cd0aee0f
DTITLE=張偉文 - 張偉文精選15首 (ARM SHMCD) (EZ-WAV)
DYEAR=2019
DGENRE=
TTITLE0=離別的叮嚀(粵語)
TTITLE1=明日話今天
TTITLE2=再會了.野茉莉 
TTITLE3=同你飲勝!
TTITLE4=梧桐樹下
TTITLE5=大內群英續集
TTITLE6=含羞草
TTITLE7=荔枝花開
TTITLE8=仍是對她一般好
TTITLE9=笑傲江湖
TTITLE10=風塵三奇俠
TTITLE11=桃李透艷紅
TTITLE12=別了, 親人
TTITLE13=對唔住
TTITLE14=處處是家鄉
EXTD=
EXTT0=
EXTT1=
EXTT2=
EXTT3=
EXTT4=
EXTT5=
EXTT6=
EXTT7=
EXTT8=
EXTT9=
EXTT10=
EXTT11=
EXTT12=
EXTT13=
EXTT14=
PLAYORDER=
